<?xml version="1.0" encoding="utf-8"?>
<!-- Generator: Adobe Illustrator 25.4.1, SVG Export Plug-In . SVG Version: 6.00 Build 0)  -->
<svg version="1.1" id="Layer_1" xmlns="http://www.w3.org/2000/svg" xmlns:xlink="http://www.w3.org/1999/xlink" x="0px" y="0px"
	 viewBox="0 0 128 128" style="enable-background:new 0 0 128 128;" xml:space="preserve">
<style type="text/css">
	.st0{fill:#363D52;stroke:#212532;stroke-width:4;}
	.st1{fill:#478CBF;}
	.st2{fill:#FFFFFF;}
	.st3{fill:#414042;}
</style>
<path class="st0" d="M16,2h96c7.7,0,14,6.3,14,14v96c0,7.7-6.3,14-14,14H16c-7.7,0-14-6.3-14-14V16C2,8.3,8.3,2,16,2z"/>
<path class="st1" d="M76.9,85.5c2.4,2.4,2.4,6.2,0,8.6L64,106.9c-5.9,5.9-13.1,8.9-21.5,8.9s-15.5-3-21.5-8.9
	c-5.9-5.9-8.9-13.1-8.9-21.5s3-15.5,8.9-21.5l12.9-12.9c2.4-2.4,6.2-2.4,8.6,0l0,0c2.4,2.4,2.4,6.2,0,8.6L29.6,72.6
	c-3.6,3.6-5.4,7.9-5.4,12.9s1.8,9.3,5.4,12.9c3.6,3.6,7.9,5.4,12.9,5.4c5,0,9.3-1.8,12.9-5.4l12.9-12.9
	C70.7,83.1,74.5,83.1,76.9,85.5L76.9,85.5z M46.8,81.2L46.8,81.2c-2.4-2.4-2.4-6.2,0-8.6l25.8-25.8c2.4-2.4,6.2-2.4,8.6,0l0,0
	c2.4,2.4,2.4,6.2,0,8.6L55.4,81.2C53,83.5,49.2,83.5,46.8,81.2z M85.5,76.9L85.5,76.9c-2.4-2.4-2.4-6.2,0-8.6l12.9-12.9
	c3.6-3.6,5.4-7.9,5.4-12.9c0-5-1.8-9.3-5.4-12.9c-3.6-3.6-7.9-5.4-12.9-5.4s-9.3,1.8-12.9,5.4L59.7,42.5c-2.4,2.4-6.2,2.4-8.6,0l0,0
	c-2.4-2.4-2.4-6.2,0-8.6L64,21.1c5.9-5.9,13.1-8.9,21.5-8.9s15.5,3,21.5,8.9c5.9,5.9,8.9,13.1,8.9,21.5s-3,15.5-8.9,21.5L94.1,76.9
	C91.7,79.3,87.8,79.3,85.5,76.9z"/>
<circle class="st2" cx="89.3" cy="39.1" r="9.1"/>
<circle class="st2" cx="38.2" cy="88.9" r="9.1"/>
<circle class="st3" cx="38.8" cy="88.3" r="6.1"/>
<circle class="st3" cx="88.7" cy="39.7" r="6.1"/>
</svg>
